{
  "accessors": [
    {
      "bufferView": 2,
      "componentType": 5126,
      "count": 53189,
      "max": [
        6910.357421875,
        7.968713760375977,
        3893.217041015625
      ],
      "min": [
        -6297.1826171875,
        -23.099266052246094,
        -2806.0029296875
      ],
      "type": "VEC3"
    },
    {
      "bufferView": 2,
      "byteOffset": 638268,
      "componentType": 5126,
      "count": 53189,
      "max": [
        1.0,
        1.0,
        1.0
      ],
      "min": [
        -1.0,
        -1.0,
        -1.0
      ],
      "type": "VEC3"
    },
    {
      "bufferView": 1,
      "componentType": 5126,
      "count": 53189,
      "max": [
        0.9811155796051025,
        0.7681207656860352
      ],
      "min": [
        0.013887714594602585,
        0.20887616276741028
      ],
      "type": "VEC2"
    },
    {
      "bufferView": 0,
      "componentType": 5125,
      "count": 133572,
      "type": "SCALAR"
    },
    {
      "bufferView": 2,
      "byteOffset": 1276536,
      "componentType": 5126,
      "count": 11342,
      "max": [
        6910.357421875,
        5.971058368682861,
        3893.217041015625
      ],
      "min": [
        -6297.1826171875,
        -7.105316162109375,
        -2806.0029296875
      ],
      "type": "VEC3"
    },
    {
      "bufferView": 2,
      "byteOffset": 1412640,
      "componentType": 5126,
      "count": 11342,
      "max": [
        0.5728726387023926,
        1.0,
        0.9526311755180359
      ],
      "min": [
        -0.8117836117744446,
        -1.0,
        -0.8196325302124023
      ],
      "type": "VEC3"
    },
    {
      "bufferView": 1,
      "byteOffset": 425512,
      "componentType": 5126,
      "count": 11342,
      "max": [
        0.9771944284439087,
        0.7655037641525269
      ],
      "min": [
        0.019781505689024925,
        0.21193400025367737
      ],
      "type": "VEC2"
    },
    {
      "bufferView": 0,
      "byteOffset": 534288,
      "componentType": 5125,
      "count": 32799,
      "type": "SCALAR"
    }
  ],
  "asset": {
    "extras": {
      "author": "Daniel.Riches (https://sketchfab.com/Daniel.Riches)",
      "license": "CC-BY-4.0 (http://creativecommons.org/licenses/by/4.0/)",
      "source": "https://sketchfab.com/3d-models/world-map-b4c6c0cb9b2b4713beb3a6250381d2b0",
      "title": "World Map"
    },
    "generator": "Sketchfab-17.1.0",
    "version": "2.0"
  },
  "bufferViews": [
    {
      "buffer": 0,
      "byteLength": 665484,
      "name": "floatBufferViews",
      "target": 34963
    },
    {
      "buffer": 0,
      "byteLength": 516248,
      "byteOffset": 665484,
      "byteStride": 8,
      "name": "floatBufferViews",
      "target": 34962
    },
    {
      "buffer": 0,
      "byteLength": 1548744,
      "byteOffset": 1181732,
      "byteStride": 12,
      "name": "floatBufferViews",
      "target": 34962
    }
  ],
  "buffers": [
    {
      "byteLength": 2730476,
      "uri": "scene.bin"
    }
  ],
  "materials": [
    {
      "doubleSided": true,
      "name": "WorldCliffs",
      "pbrMetallicRoughness": {
        "metallicFactor": 0.0,
        "roughnessFactor": 0.7763932022500211
      }
    },
    {
      "doubleSided": true,
      "name": "WorldFlat",
      "pbrMetallicRoughness": {
        "metallicFactor": 0.0,
        "roughnessFactor": 0.7763932022500211
      }
    }
  ],
  "meshes": [
    {
      "name": "WorldCliffs_WorldCliffs_0",
      "primitives": [
        {
          "attributes": {
            "NORMAL": 1,
            "POSITION": 0,
            "TEXCOORD_0": 2
          },
          "indices": 3,
          "material": 0,
          "mode": 4
        }
      ]
    },
    {
      "name": "WorldFlat_WorldFlat_0",
      "primitives": [
        {
          "attributes": {
            "NORMAL": 5,
            "POSITION": 4,
            "TEXCOORD_0": 6
          },
          "indices": 7,
          "material": 1,
          "mode": 4
        }
      ]
    }
  ],
  "nodes": [
    {
      "children": [
        1
      ],
      "matrix": [
        1.0,
        0.0,
        0.0,
        0.0,
        0.0,
        2.220446049250313e-16,
        -1.0,
        0.0,
        0.0,
        1.0,
        2.220446049250313e-16,
        0.0,
        0.0,
        0.0,
        0.0,
        1.0
      ],
      "name": "Sketchfab_model"
    },
    {
      "children": [
        2
      ],
      "matrix": [
        0.009999999776482582,
        0.0,
        0.0,
        0.0,
        0.0,
        0.0,
        0.009999999776482582,
        0.0,
        0.0,
        -0.009999999776482582,
        0.0,
        0.0,
        0.0,
        0.0,
        0.0,
        1.0
      ],
      "name": "WorldMap.fbx"
    },
    {
      "children": [
        3,
        5
      ],
      "name": "RootNode"
    },
    {
      "children": [
        4
      ],
      "matrix": [
        100.0,
        0.0,
        0.0,
        0.0,
        0.0,
        99.9999999999999,
        4.371138828673792e-06,
        0.0,
        0.0,
        -4.371138828673792e-06,
        99.9999999999999,
        0.0,
        0.0,
        0.0,
        0.0,
        1.0
      ],
      "name": "WorldCliffs"
    },
    {
      "mesh": 0,
      "name": "WorldCliffs_WorldCliffs_0"
    },
    {
      "children": [
        6
      ],
      "matrix": [
        100.0,
        0.0,
        0.0,
        0.0,
        0.0,
        99.9999999999999,
        4.371138828673792e-06,
        0.0,
        0.0,
        -4.371138828673792e-06,
        99.9999999999999,
        0.0,
        0.0,
        0.0,
        0.0,
        1.0
      ],
      "name": "WorldFlat"
    },
    {
      "mesh": 1,
      "name": "WorldFlat_WorldFlat_0"
    }
  ],
  "scene": 0,
  "scenes": [
    {
      "name": "Sketchfab_Scene",
      "nodes": [
        0
      ]
    }
  ]
}
